<?xml version="1.0" encoding="utf-8"?>
<!-- Generator: Adobe Illustrator 23.0.1, SVG Export Plug-In . SVG Version: 6.00 Build 0)  -->
<svg version="1.1" id="レイヤー_1" xmlns="http://www.w3.org/2000/svg" xmlns:xlink="http://www.w3.org/1999/xlink" x="0px"
	 y="0px" viewBox="0 0 292.7 60.4" enable-background="new 0 0 292.7 60.4" xml:space="preserve">
<g>
	<g>
		<path fill="#FFFFFF" d="M100.9,28.7c0,6.5-4.6,10-9.5,10c-5.4,0-9.3-4-9.3-9.5c0-5.9,4.2-10,9.5-10C97,19.2,100.9,23.3,100.9,28.7
			z M83.4,29.2c0,4.4,3,8.4,8,8.4c5,0,8.1-3.8,8.1-8.8c0-4.1-2.6-8.5-8-8.5C86.1,20.4,83.4,24.5,83.4,29.2z"/>
		<path fill="#FFFFFF" d="M106.4,29.3c0-1.5,0-2.9-0.1-4.3h1.3l0.1,2.9h0.1c0.7-1.9,2.1-3.2,4.1-3.2c0.2,0,0.4,0,0.6,0.1V26
			c-0.3-0.1-0.5-0.1-0.8-0.1c-1.9,0-3.3,1.6-3.7,3.9c-0.1,0.4-0.1,0.9-0.1,1.3v7.2h-1.4V29.3z"/>
		<path fill="#FFFFFF" d="M120.3,21v4h4.2v1.1h-4.2v8.6c0,1.6,0.5,2.9,2.1,2.9c0.8,0,1.4-0.1,1.8-0.3l0.2,1.1
			c-0.5,0.2-1.2,0.4-2.1,0.4c-1.1,0-1.9-0.3-2.5-1c-0.7-0.8-0.9-2-0.9-3.2v-8.4h-2.5V25h2.5v-3.6L120.3,21z"/>
		<path fill="#FFFFFF" d="M129.5,18.4h1.4v9.3h0.1c0.4-0.8,1.1-1.6,2.1-2.2c0.9-0.5,1.9-0.9,3-0.9c1.3,0,5.2,0.6,5.2,6.1v7.6h-1.4
			v-7.6c0-2.6-1.1-4.9-4.2-4.9c-2.1,0-3.9,1.5-4.5,3.1c-0.2,0.4-0.2,0.8-0.2,1.4v7.9h-1.4V18.4z"/>
		<path fill="#FFFFFF" d="M160.3,31.5c0,5-3.9,7.2-7.2,7.2c-4,0-6.9-2.9-6.9-6.9c0-4.5,3.3-7.2,7.1-7.2
			C157.6,24.7,160.3,27.7,160.3,31.5z M147.5,31.7c0,3.7,2.7,5.9,5.6,5.9c3,0,5.7-2.1,5.7-6c0-2.5-1.7-5.8-5.6-5.8
			C149.5,25.8,147.5,28.6,147.5,31.7z"/>
		<path fill="#FFFFFF" d="M192.4,29.5c-0.2-2.8-0.4-6.4-0.4-8.4h-0.1c-0.8,2-1.6,4.2-2.8,7l-4.3,10.3h-1l-4.1-10.1
			c-1.2-2.9-2-5.2-2.6-7.2H177c-0.1,2.2-0.2,5.6-0.5,8.7l-0.7,8.6h-1.3l1.5-18.8h1.6l4.5,11.2c0.9,2.3,1.7,4.3,2.2,6h0.1
			c0.5-1.6,1.3-3.5,2.3-6l4.7-11.2h1.6l1.3,18.8H193L192.4,29.5z"/>
		<path fill="#FFFFFF" d="M208.5,38.4l-0.2-2.1h-0.1c-0.7,1-2.4,2.4-4.9,2.4c-3,0-4.3-2.1-4.3-3.7c0-3,2.8-5,9.1-4.9v-0.3
			c0-1-0.2-4-3.8-4c-1.3,0-2.7,0.3-3.8,1.1l-0.4-1c1.5-1,3.1-1.3,4.4-1.3c4.5,0,5,3.5,5,5.6v4.9c0,1.1,0.1,2.1,0.2,3.2H208.5z
			 M208.2,31.2c-3.5-0.1-7.6,0.4-7.6,3.5c0,1.9,1.4,2.8,2.9,2.8c2.6,0,4-1.5,4.5-2.7c0.1-0.3,0.2-0.6,0.2-0.8V31.2z"/>
		<path fill="#FFFFFF" d="M215.9,28.2c0-1.1,0-2.1-0.1-3.2h1.3l0.1,2.7h0.1c0.8-1.6,2.7-3,5.2-3c1.2,0,5.2,0.6,5.2,6.1v7.6h-1.4
			v-7.6c0-2.6-1.1-4.9-4.2-4.9c-2.1,0-3.9,1.5-4.5,3.2c-0.1,0.3-0.2,0.8-0.2,1.2v8.2h-1.4V28.2z"/>
		<path fill="#FFFFFF" d="M242.8,38.4l-0.2-2.1h-0.1c-0.7,1-2.4,2.4-4.9,2.4c-3,0-4.3-2.1-4.3-3.7c0-3,2.8-5,9.1-4.9v-0.3
			c0-1-0.2-4-3.8-4c-1.3,0-2.7,0.3-3.8,1.1l-0.4-1c1.5-1,3.1-1.3,4.4-1.3c4.5,0,5,3.5,5,5.6v4.9c0,1.1,0.1,2.1,0.2,3.2H242.8z
			 M242.5,31.2c-3.5-0.1-7.6,0.4-7.6,3.5c0,1.9,1.4,2.8,2.9,2.8c2.6,0,4-1.5,4.5-2.7c0.1-0.3,0.2-0.6,0.2-0.8V31.2z"/>
		<path fill="#FFFFFF" d="M262.7,25c-0.1,1.1-0.1,2.1-0.1,3.2v8.2c0,3.3-0.8,5.1-2.1,6.2c-1.4,1.3-3.4,1.6-5,1.6
			c-1.7,0-3.6-0.4-4.8-1.3l0.5-1.1c1.1,0.7,2.5,1.3,4.5,1.3c3.2,0,5.5-1.6,5.5-5.7v-2h-0.1c-0.8,1.4-2.5,2.8-5.3,2.8
			c-3.8,0-6.4-3.2-6.4-6.5c0-4.5,3.3-7.2,6.7-7.2c3,0,4.5,1.5,5.2,2.8h0.1l0.1-2.5H262.7z M261.2,30.4c0-0.5-0.1-1-0.2-1.4
			c-0.6-1.8-2.3-3.2-4.7-3.2c-3.2,0-5.5,2.3-5.5,5.9c0,2.7,1.7,5.6,5.4,5.6c2.1,0,4-1.4,4.7-3.2c0.2-0.4,0.3-0.9,0.3-1.4V30.4z"/>
		<path fill="#FFFFFF" d="M269.4,31.7c0,3.9,2.5,5.9,5.7,5.9c2.3,0,3.4-0.4,4.3-0.8l0.4,1.1c-0.5,0.2-2,0.9-4.8,0.9
			c-4.2,0-6.9-2.8-6.9-6.7c0-4.5,2.9-7.4,6.7-7.4c5,0,5.8,4.4,5.8,6.2c0,0.4,0,0.6-0.1,0.8H269.4z M279.2,30.6
			c0-1.4-0.6-4.8-4.6-4.8c-3.4,0-4.8,2.8-5.1,4.8H279.2z"/>
		<path fill="#FFFFFF" d="M286.6,29.3c0-1.5,0-2.9-0.1-4.3h1.3l0.1,2.9h0.1c0.7-1.9,2.1-3.2,4.1-3.2c0.2,0,0.4,0,0.6,0.1V26
			c-0.3-0.1-0.5-0.1-0.8-0.1c-1.9,0-3.3,1.6-3.7,3.9c-0.1,0.4-0.1,0.9-0.1,1.3v7.2h-1.4V29.3z"/>
	</g>
	<g opacity="0.3">
		<path fill="#FFFFFF" d="M40.7,45.9c-0.6,0-1.2-0.3-1.5-0.8c-0.6-0.9-0.5-2.1,0.4-2.7c3.6-2.7,5.7-6.9,5.7-11.4
			c0-7.8-6.4-14.2-14.2-14.2S16.8,23.2,16.8,31c0,4.5,2.1,8.7,5.7,11.4c0.9,0.6,1,1.8,0.4,2.7c-0.6,0.9-1.8,1-2.7,0.4
			c-4.6-3.5-7.2-8.7-7.2-14.5c0-10,8.1-18.1,18.1-18.1S49.1,21,49.1,31c0,5.7-2.6,11-7.2,14.5C41.5,45.8,41.1,45.9,40.7,45.9z"/>
	</g>
	<g opacity="0.6">
		<path fill="#FFFFFF" d="M40.7,53.4c-0.7,0-1.4-0.4-1.7-1.1c-0.5-1,0-2.1,0.9-2.6C47.1,46.3,51.7,39,51.7,31
			c0-11.4-9.3-20.7-20.7-20.7S10.3,19.6,10.3,31c0,7.9,4.6,15.3,11.8,18.7c1,0.5,1.4,1.6,0.9,2.6c-0.5,1-1.6,1.4-2.6,0.9
			c-8.5-4-14-12.8-14-22.2c0-13.5,11-24.6,24.6-24.6s24.6,11,24.6,24.6c0,9.4-5.5,18.1-14,22.2C41.3,53.3,41,53.4,40.7,53.4z"/>
	</g>
	<g>
		<path fill="#FFFFFF" d="M40.7,60.4c-0.8,0-1.5-0.5-1.8-1.3c-0.4-1,0.2-2.1,1.2-2.5C50.9,52.8,58.2,42.5,58.2,31
			C58.2,16,46,3.9,31,3.9S3.9,16,3.9,31c0,11.5,7.3,21.8,18.1,25.6c1,0.4,1.5,1.5,1.2,2.5c-0.4,1-1.5,1.5-2.5,1.2
			C8.3,55.9,0,44.1,0,31C0,13.9,13.9,0,31,0s31,13.9,31,31c0,13.1-8.3,24.9-20.7,29.3C41.2,60.3,40.9,60.4,40.7,60.4z"/>
	</g>
</g>
</svg>
