<?xml version="1.0" encoding="utf-8"?>
<!-- Generator: Adobe Illustrator 23.0.1, SVG Export Plug-In . SVG Version: 6.00 Build 0)  -->
<svg version="1.1" id="レイヤー_1" xmlns="http://www.w3.org/2000/svg" xmlns:xlink="http://www.w3.org/1999/xlink" x="0px"
	 y="0px" viewBox="0 0 180.8 175.9" enable-background="new 0 0 180.8 175.9" xml:space="preserve">
<g>
	<path fill="#C4E0CF" d="M90.4,37.6c-29.1,0-52.7,23.6-52.7,52.7c0,16.7,7.7,32.1,21.1,42.2c1,0.8,2.2,1.1,3.4,1.1
		c1.7,0,3.4-0.8,4.5-2.2c1.9-2.5,1.4-6-1.1-7.9c-10.5-7.9-16.6-20-16.6-33.2c0-22.9,18.6-41.5,41.5-41.5S132,67.4,132,90.3
		c0,13.2-6,25.3-16.6,33.2c-2.5,1.9-3,5.4-1.1,7.9c1.1,1.5,2.8,2.2,4.5,2.2c1.2,0,2.4-0.4,3.4-1.1c13.4-10.1,21.1-25.4,21.1-42.2
		C143.1,61.3,119.5,37.6,90.4,37.6"/>
	<path fill="#8CB7C8" d="M90.4,18.8c-39.5,0-71.6,32.1-71.6,71.6c0,27.5,16,52.9,40.9,64.7c0.8,0.4,1.6,0.5,2.4,0.5
		c2.1,0,4.1-1.2,5.1-3.2c1.3-2.8,0.1-6.2-2.7-7.5C43.6,135,30,113.6,30,90.4c0-33.3,27.1-60.3,60.3-60.3s60.3,27.1,60.3,60.3
		c0,23.2-13.5,44.6-34.5,54.5c-2.8,1.3-4,4.7-2.7,7.5c1,2,3,3.2,5.1,3.2c0.8,0,1.6-0.2,2.4-0.5c24.8-11.8,40.9-37.2,40.9-64.7
		C161.9,50.9,129.8,18.8,90.4,18.8"/>
	<path fill="#4A9BB3" d="M62.1,175.9c-0.6,0-1.3-0.1-1.9-0.3C24.2,162.8,0,128.6,0,90.4C0,40.6,40.5,0,90.4,0s90.4,40.5,90.4,90.4
		c0,38.2-24.2,72.5-60.3,85.2c-2.9,1-6.1-0.5-7.2-3.4c-1-2.9,0.5-6.1,3.4-7.2c31.6-11.2,52.8-41.2,52.8-74.6
		c0-43.6-35.5-79.2-79.2-79.2S11.1,46.7,11.1,90.4c0,33.5,21.2,63.5,52.8,74.6c2.9,1,4.5,4.2,3.4,7.2
		C66.6,174.5,64.4,175.9,62.1,175.9z"/>
</g>
</svg>
